<?xml version="1.0" encoding="UTF-8"?>
<svg version="1.1" xmlns="http://www.w3.org/2000/svg" width="210" height="144">
<path d="M0 0 C0.66 0 1.32 0 2 0 C3.66666667 0 5.33333333 0 7 0 C7.08103404 2.91722548 7.14051081 5.83219516 7.1875 8.75 C7.21263672 9.575 7.23777344 10.4 7.26367188 11.25 C7.3373794 17.34315516 7.3373794 17.34315516 5.67578125 20.578125 C4 22 4 22 1 22 C1 22.99 1 23.98 1 25 C2.32 25 3.64 25 5 25 C5 26.32 5 27.64 5 29 C3.68 29 2.36 29 1 29 C1.33 31.31 1.66 33.62 2 36 C2.66 36 3.32 36 4 36 C4.33 37.65 4.66 39.3 5 41 C1.625 41.125 1.625 41.125 -2 41 C-4 39 -4 39 -4.1953125 36.6171875 C-4.13020833 34.078125 -4.06510417 31.5390625 -4 29 C-8.95 29.495 -8.95 29.495 -14 30 C-11.69 30.99 -9.38 31.98 -7 33 C-6.8125 35.875 -6.8125 35.875 -7 39 C-9.99738941 40.99825961 -10.63347508 41.27550398 -14 41.25 C-14.680625 41.25515625 -15.36125 41.2603125 -16.0625 41.265625 C-18 41 -18 41 -21 39 C-20.67 37.68 -20.34 36.36 -20 35 C-17.36 35.66 -14.72 36.32 -12 37 C-12 36.34 -12 35.68 -12 35 C-13.670625 34.814375 -13.670625 34.814375 -15.375 34.625 C-19 34 -19 34 -21 32 C-20.875 29 -20.875 29 -20 26 C-16.6265387 23.5451338 -13.77234516 23.93778857 -9.75 24.375 C-8.67234375 24.48585938 -7.5946875 24.59671875 -6.484375 24.7109375 C-5.66453125 24.80632813 -4.8446875 24.90171875 -4 25 C-5.63412443 23.29159719 -6.86906094 22.06546953 -9 21 C-8.67 19.68 -8.34 18.36 -8 17 C-5.03 17.33 -2.06 17.66 1 18 C1 17.34 1 16.68 1 16 C0.2575 16.20625 -0.485 16.4125 -1.25 16.625 C-4.39102902 17.05332214 -5.45855941 16.84035353 -8 15 C-10.29968563 11.78044012 -10.55348638 8.87440468 -10 5 C-6.96862569 1.01590805 -5.05700778 -0.68337943 0 0 Z M-4 5 C-4.69159401 6.84725052 -4.69159401 6.84725052 -5 9 C-4.01 10.485 -4.01 10.485 -3 12 C-1.35 11.67 0.3 11.34 2 11 C2.042721 9.33388095 2.04063832 7.66617115 2 6 C0.93354885 4.70366379 0.93354885 4.70366379 -1.5625 4.9375 C-2.366875 4.958125 -3.17125 4.97875 -4 5 Z " fill="#FFFFFF" transform="translate(150,6)"/>
<path d="M0 0 C0.99 0.66 1.98 1.32 3 2 C3.33 1.67 3.66 1.34 4 1 C6.64 1 9.28 1 12 1 C12 9.25 12 17.5 12 26 C8.66666667 26 5.33333333 26 2 26 C1.278125 26.20625 0.55625 26.4125 -0.1875 26.625 C-3.99672241 27.13289632 -6.44348125 26.4226075 -10 25 C-14.29204136 20.48206172 -15.35937726 17.39470728 -15.28125 11.3203125 C-14.71606264 6.65751677 -12.19155465 3.94070104 -8.625 1.125 C-5.49983797 -0.21435516 -3.3695169 -0.36625184 0 0 Z M-5.8125 9.1875 C-7.42525784 11.64907776 -7.4334014 13.11065736 -7 16 C-6 18 -6 18 -4 19 C-0.91666667 19 -0.91666667 19 2 18 C4.29637779 15.24104365 4.29637779 15.24104365 3.75 12.4375 C3.16191948 9.84999433 3.16191948 9.84999433 1 8 C-1.84602594 7.63512488 -3.3864306 7.59800625 -5.8125 9.1875 Z " fill="#FFFFFF" transform="translate(20,105)"/>
<path d="M0 0 C3.375 1.8125 3.375 1.8125 6 4 C6 4.99 6 5.98 6 7 C1.85860022 8.18325708 -0.1010304 7.64167141 -4 6 C-7.11785113 6.64644661 -7.11785113 6.64644661 -8 9 C-8.33333333 12 -8.33333333 12 -8 15 C-4.5647952 17.29013653 -3.014669 17.17842973 1 17 C1 16.34 1 15.68 1 15 C3.97 15.495 3.97 15.495 7 16 C7 10.72 7 5.44 7 0 C8.98 0 10.96 0 13 0 C13.33 1.98 13.66 3.96 14 6 C15.3921875 5.9071875 15.3921875 5.9071875 16.8125 5.8125 C20 6 20 6 21.6875 7.0625 C23.70439276 10.03981788 23.28491047 12.64825295 23.1875 16.1875 C23.14689453 18.09595703 23.14689453 18.09595703 23.10546875 20.04296875 C23.07066406 21.01878906 23.03585938 21.99460937 23 23 C21.35 23 19.7 23 18 23 C18 19.04 18 15.08 18 11 C16.35 11 14.7 11 13 11 C13 14.96 13 18.92 13 23 C11.35 23 9.7 23 8 23 C7.34 21.68 6.68 20.36 6 19 C5.566875 19.474375 5.13375 19.94875 4.6875 20.4375 C2.17556844 22.76336255 0.05425812 22.99488131 -3.3125 23.3125 C-7.72563017 22.93850592 -9.66258074 21.87173285 -13 19 C-15.31968839 15.36918339 -15.2626589 12.0723983 -14.61328125 7.93359375 C-13.59215884 4.71413136 -11.59723258 3.04068274 -9 1 C-5.64870516 -0.11709828 -3.51689744 -0.34479387 0 0 Z " fill="#FFFFFF" transform="translate(88,0)"/>
<path d="M0 0 C2.64774114 2.27668003 4.4339727 4.86794541 6 8 C6 9.98 6 11.96 6 14 C0.06 14 -5.88 14 -12 14 C-12 14.66 -12 15.32 -12 16 C-9.14221967 16.68493373 -9.14221967 16.68493373 -6 17 C-5.01 16.34 -4.02 15.68 -3 15 C-0.95703125 14.8046875 -0.95703125 14.8046875 1.1875 14.875 C2.445625 14.91625 3.70375 14.9575 5 15 C3.64845995 19.42322197 1.90273896 21.51643884 -2 24 C-5.90702965 25.27403141 -7.68717069 25.10247857 -11.625 23.8125 C-15.41375841 21.77779641 -18.06051376 19.87897249 -20 16 C-20.42308868 11.85861277 -20.40035969 8.12601163 -19 4.1875 C-13.60622869 -1.71193738 -7.37119229 -3.51009157 0 0 Z M-12 8 C-9.03 8 -6.06 8 -3 8 C-3.33 7.34 -3.66 6.68 -4 6 C-8.49304582 5.57496554 -8.49304582 5.57496554 -12 8 Z " fill="#FFFFFF" transform="translate(83,107)"/>
<path d="M0 0 C3.47558415 1.92596064 5.61310467 4.20862318 7.375 7.8125 C7.58125 8.534375 7.7875 9.25625 8 10 C6.54207116 10.05399736 5.08357288 10.09279177 3.625 10.125 C2.81289063 10.14820312 2.00078125 10.17140625 1.1640625 10.1953125 C-1 10 -1 10 -3 8 C-5.58354218 7.83312552 -5.58354218 7.83312552 -8 8 C-9.87543354 11.86763446 -9.87543354 11.86763446 -9 16 C-6.09926819 16.67801034 -6.09926819 16.67801034 -3 17 C-2.34 16.34 -1.68 15.68 -1 15 C1.1640625 14.5859375 1.1640625 14.5859375 3.625 14.375 C4.44226563 14.30023438 5.25953125 14.22546875 6.1015625 14.1484375 C6.72804688 14.09945312 7.35453125 14.05046875 8 14 C6.7291578 19.46462146 4.63718978 21.87881457 0 25 C-4.82207677 26.53896067 -8.35718377 25.94154133 -13 24 C-16.67029065 20.72865398 -18.23668156 18.3486172 -19.0625 13.5 C-19.25724276 10.09200174 -18.95561373 8.90590111 -17.4375 5.6875 C-12.04198733 -0.26139858 -7.77427738 -2.40599282 0 0 Z " fill="#FFFFFF" transform="translate(53,106)"/>
<path d="M0 0 C3.65727429 2.03181905 4.7968461 3.54290373 6.5 7.375 C7.10613091 11.76944907 6.53554295 13.40116485 4 17 C1.06189095 19.60232515 -1.16677533 20.25019085 -5 20.0625 C-8.1246345 19.51805611 -9.84220383 18.64193905 -12 16.3125 C-14.21902128 12.637246 -14.87185483 11.18490316 -14 7 C-10.21012434 1.02258582 -7.04225087 -0.59680092 0 0 Z " fill="#FFFFFF" transform="translate(38,15)"/>
<path d="M0 0 C3.67203986 2.3120251 5.57659494 3.82940955 7.0625 7.9375 C6.9839902 11.78448019 6.13061342 13.80407986 4 17 C0.98241008 19.59848021 -0.49588616 20 -4.5 20 C-8.6101882 18.82566051 -10.26365586 17.2192284 -13 14 C-13.33 13.67 -13.66 13.34 -14 13 C-14.41194057 10.04775928 -14.5560236 7.90042627 -12.953125 5.3046875 C-8.85747268 0.3176285 -6.43003813 -0.64300381 0 0 Z " fill="#FFFFFF" transform="translate(14,15)"/>
<path d="M0 0 C2.91966192 2.28495281 4.59188033 4.0052083 6 7.4375 C6 11.77761714 4.16191071 14.75509567 1.25 17.875 C-2.08972194 19.54486097 -4.3120935 19.50867676 -8 19 C-12.04212164 16.52981455 -13.67811019 15.06034291 -15.0625 10.5 C-14.99187106 6.54477949 -14.51464223 5.01757067 -12 2 C-7.91125 -1.40729167 -5.05982822 -1.4456652 0 0 Z " fill="#FFFFFF" transform="translate(27,37)"/>
<path d="M0 0 C2.75329021 1.79562405 4.52627461 3.05254922 6 6 C6.67660495 11.86390959 6.67660495 11.86390959 4.953125 14.7578125 C2.24830146 18.05133293 0.48199038 19.7979104 -3.75 20.375 C-8.2753858 19.8528401 -9.7671103 18.15770622 -13 15 C-14.41000664 12.17998673 -14.24548451 10.12992745 -14 7 C-12.73896101 4.22571423 -11.68910086 2.51682565 -9.25 0.6875 C-5.9789382 -0.31199111 -3.40257412 -0.3581657 0 0 Z " fill="#FFFFFF" transform="translate(62,15)"/>
<path d="M0 0 C2.86262257 2.00992648 4.64014872 3.43748788 5.4453125 6.93359375 C5.64769318 10.50223967 5.14571934 12.70222569 3.5625 15.9375 C0.43211343 18.45707943 -1.77754902 19.02219375 -5.7421875 19.27734375 C-9.67814184 18.79386147 -11.34209159 16.85725154 -14 14 C-15.45147903 11.09704195 -15.37239025 9.22738221 -15 6 C-11.15141176 -0.43412629 -7.18883523 -1.73523609 0 0 Z " fill="#FFFFFF" transform="translate(51,37)"/>
<path d="M0 0 C1.65 0 3.3 0 5 0 C5.33 1.65 5.66 3.3 6 5 C6.99 5 7.98 5 9 5 C9 6.32 9 7.64 9 9 C8.01 9.33 7.02 9.66 6 10 C6 12.31 6 14.62 6 17 C6.99 17 7.98 17 9 17 C9 18.32 9 19.64 9 21 C5.625 21.1875 5.625 21.1875 2 21 C-0.13586678 17.79619983 -0.23132175 16.98060033 -0.125 13.3125 C-0.10695312 12.50425781 -0.08890625 11.69601563 -0.0703125 10.86328125 C-0.04710937 10.24839844 -0.02390625 9.63351563 0 9 C-1.0725 9.165 -2.145 9.33 -3.25 9.5 C-7 10 -7 10 -11 10 C-11.33 11.98 -11.66 13.96 -12 16 C-10.906875 15.79375 -9.81375 15.5875 -8.6875 15.375 C-5 15 -5 15 -2 17 C-2 17.66 -2 18.32 -2 19 C-5.68427659 21.45618439 -8.72077768 21.69019715 -13 21 C-16.06458538 18.95694308 -16.82153128 17.55920198 -17.9375 14.0625 C-18.01327396 10.34957588 -17.3135507 8.87199397 -15 6 C-12.24946024 3.83886162 -11.04608808 3.99506199 -7.5 4.375 C-6.345 4.58125 -5.19 4.7875 -4 5 C-2.68 5 -1.36 5 0 5 C0 3.35 0 1.7 0 0 Z " fill="#FFFFFF" transform="translate(201,26)"/>
<path d="M0 0 C0.86625 -0.00515625 1.7325 -0.0103125 2.625 -0.015625 C5 0.25 5 0.25 8 2.25 C8 2.91 8 3.57 8 4.25 C8.66 4.25 9.32 4.25 10 4.25 C10 4.91 10 5.57 10 6.25 C8.0085944 6.63133299 6.00720923 6.96325582 4 7.25 C3.67 6.92 3.34 6.59 3 6.25 C0.32941149 6.10884839 -2.32432238 6.20752893 -5 6.25 C-5.04125 7.52875 -5.0825 8.8075 -5.125 10.125 C-5.15980469 11.20394531 -5.15980469 11.20394531 -5.1953125 12.3046875 C-5.18331689 14.48863645 -5.18331689 14.48863645 -3 16.25 C1.05261287 16.59490322 2.54754176 16.55163882 6 14.25 C6.99 14.91 7.98 15.57 9 16.25 C7.63016497 19.41115776 7.0109362 20.2427092 4 22.25 C-0.50282411 22.97517392 -3.99285654 22.85000036 -7.9375 20.5 C-10.78206465 17.39683856 -11.82909642 15.56026074 -12.375 11.375 C-11.89861498 7.40512486 -10.46959574 5.35463464 -8 2.25 C-4.76085771 0.09057181 -3.75140267 -0.02232978 0 0 Z " fill="#FFFFFF" transform="translate(85,24.75)"/>
<path d="M0 0 C0.99 0 1.98 0 3 0 C3.66 1.65 4.32 3.3 5 5 C5.66 3.35 6.32 1.7 7 0 C10 1 10 1 11.1875 3.0625 C11.455625 3.701875 11.72375 4.34125 12 5 C12.66 3.35 13.32 1.7 14 0 C18.29 0 22.58 0 27 0 C27 0.99 27 1.98 27 3 C24.69 3 22.38 3 20 3 C20 3.66 20 4.32 20 5 C22.31 5 24.62 5 27 5 C27 5.99 27 6.98 27 8 C24.69 8 22.38 8 20 8 C20 8.66 20 9.32 20 10 C22.31 10 24.62 10 27 10 C27 10.99 27 11.98 27 13 C23.7 13 20.4 13 17 13 C16.67 10.36 16.34 7.72 16 5 C15.01 7.64 14.02 10.28 13 13 C12.01 13 11.02 13 10 13 C9.34 11.02 8.68 9.04 8 7 C7.34 8.98 6.68 10.96 6 13 C5.01 13 4.02 13 3 13 C2.49242138 11.58603098 1.99425075 10.16868271 1.5 8.75 C1.08234375 7.56664062 1.08234375 7.56664062 0.65625 6.359375 C0 4 0 4 0 0 Z " fill="#FFFFFF" transform="translate(99,53)"/>
<path d="M0 0 C2.875 2.1875 2.875 2.1875 5 5 C5 6.65 5 8.3 5 10 C1.37 10 -2.26 10 -6 10 C-6 10.66 -6 11.32 -6 12 C-3.36 11.67 -0.72 11.34 2 11 C2.66 12.32 3.32 13.64 4 15 C0.58442978 17.10188936 -2.02173 17.4871351 -6 17 C-9.41639845 15.0260809 -10.72268412 13.81461541 -12 10.0625 C-12 6.39707859 -11.23178648 4.86943977 -9 2 C-5.48175489 -0.34549674 -4.14224306 -0.57991403 0 0 Z M-4 4 C-4.66 4.66 -5.32 5.32 -6 6 C-4.02 6 -2.04 6 0 6 C-1.32 5.34 -2.64 4.68 -4 4 Z " fill="#FFFFFF" transform="translate(170,6)"/>
<path d="M0 0 C0.680625 -0.01675781 1.36125 -0.03351562 2.0625 -0.05078125 C4 0.3125 4 0.3125 5.73828125 1.3828125 C7.68689926 4.36305181 7.28400077 6.99380539 7.1875 10.5 C7.16042969 11.77230469 7.13335937 13.04460938 7.10546875 14.35546875 C7.07066406 15.33128906 7.03585938 16.30710937 7 17.3125 C5.2507786 17.39392927 3.50045458 17.45188541 1.75 17.5 C0.77546875 17.53480469 -0.1990625 17.56960937 -1.203125 17.60546875 C-4.41038832 17.2695124 -5.72441225 16.56137898 -8 14.3125 C-8.561068 10.5720467 -8.14762184 9.53393276 -6 6.3125 C-6.30840599 4.15975052 -6.30840599 4.15975052 -7 2.3125 C-4.03082597 0.33305064 -3.34297721 0.01899419 0 0 Z M-2 4.3125 C-2.66 4.9725 -3.32 5.6325 -4 6.3125 C-1.03 6.8075 -1.03 6.8075 2 7.3125 C2 6.6525 2 5.9925 2 5.3125 C0.10820797 4.6310177 0.10820797 4.6310177 -2 4.3125 Z M-3 10.3125 C-2.67 11.3025 -2.34 12.2925 -2 13.3125 C-0.68 13.3125 0.64 13.3125 2 13.3125 C2 12.3225 2 11.3325 2 10.3125 C0.35 10.3125 -1.3 10.3125 -3 10.3125 Z " fill="#FFFFFF" transform="translate(120,5.6875)"/>
<path d="M0 0 C2.89686146 3.11412607 4 4.84571709 4 9.125 C2.81051292 12.54477536 2.0261912 13.9825392 -1 16 C-3.78134945 16.5596966 -6.21865055 16.5596966 -9 16 C-12.06458538 13.95694308 -12.82153128 12.55920198 -13.9375 9.0625 C-14.01327396 5.34957588 -13.3135507 3.87199397 -11 1 C-7.44751342 -1.79123945 -4.18995785 -1.19713082 0 0 Z M-7 4 C-8.35618499 5.12534105 -8.35618499 5.12534105 -8.0625 8.0625 C-8.041875 9.031875 -8.02125 10.00125 -8 11 C-4.95086772 12.01111093 -4.95086772 12.01111093 -2 11 C-2 9.02 -2 7.04 -2 5 C-3.65614657 4.61781233 -5.32457024 4.28604898 -7 4 Z " fill="#FFFFFF" transform="translate(108,31)"/>
<path d="M0 0 C2 2 2 2 2.1953125 5.2578125 C2.17210937 6.53398438 2.14890625 7.81015625 2.125 9.125 C2.10695312 10.40632813 2.08890625 11.68765625 2.0703125 13.0078125 C2.04710937 13.99523438 2.02390625 14.98265625 2 16 C0.35 16 -1.3 16 -3 16 C-3.33 12.37 -3.66 8.74 -4 5 C-4.99 5 -5.98 5 -7 5 C-7.33 8.63 -7.66 12.26 -8 16 C-9.98 16 -11.96 16 -14 16 C-14 10.72 -14 5.44 -14 0 C-11.69 0 -9.38 0 -7 0 C-4.29393021 -1.35303489 -2.8671629 -0.7884698 0 0 Z " fill="#FFFFFF" transform="translate(126,31)"/>
<path d="M0 0 C0.99 0 1.98 0 3 0 C3.33 2.31 3.66 4.62 4 7 C5.98 7 7.96 7 10 7 C10.33 4.69 10.66 2.38 11 0 C11.99 0 12.98 0 14 0 C14.33 2.31 14.66 4.62 15 7 C17.97 7.495 17.97 7.495 21 8 C21 8.99 21 9.98 21 11 C18.69 11 16.38 11 14 11 C14 13.31 14 15.62 14 18 C13.01 18 12.02 18 11 18 C11 15.69 11 13.38 11 11 C8.36 11 5.72 11 3 11 C3 13.31 3 15.62 3 18 C2.01 18 1.02 18 0 18 C0 15.69 0 13.38 0 11 C-2.64 11 -5.28 11 -8 11 C-8 10.01 -8 9.02 -8 8 C-4.535 7.505 -4.535 7.505 -1 7 C-0.67 4.69 -0.34 2.38 0 0 Z " fill="#85B5FC" transform="translate(96,89)"/>
<path d="M0 0 C1.65 0 3.3 0 5 0 C5.33 3.63 5.66 7.26 6 11 C7.32 11 8.64 11 10 11 C10 7.37 10 3.74 10 0 C11.65 0 13.3 0 15 0 C15 5.28 15 10.56 15 16 C5.0390625 16.1953125 5.0390625 16.1953125 2 16 C0 14 0 14 -0.1953125 10.7421875 C-0.17210937 9.46601562 -0.14890625 8.18984375 -0.125 6.875 C-0.10695312 5.59367187 -0.08890625 4.31234375 -0.0703125 2.9921875 C-0.04710937 2.00476562 -0.02390625 1.01734375 0 0 Z " fill="#FFFFFF" transform="translate(167,31)"/>
<path d="M0 0 C7.50769231 -0.36923077 7.50769231 -0.36923077 10 1.5 C10.495 2.2425 10.495 2.2425 11 3 C11.37125 2.505 11.7425 2.01 12.125 1.5 C14 0 14 0 16.9375 -0.4375 C20 0 20 0 22.4375 1.5625 C24 4 24 4 23.9375 7.625 C23 11 23 11 20 13 C17.125 13.5 17.125 13.5 14 13 C11.95049272 11.16398307 10.60803985 9.27017391 9 7 C8.67 7.33 8.34 7.66 8 8 C6.33382885 8.04063832 4.66611905 8.042721 3 8 C3 9.65 3 11.3 3 13 C2.01 13 1.02 13 0 13 C0 8.71 0 4.42 0 0 Z M3 3 C3 3.99 3 4.98 3 6 C4.32 5.67 5.64 5.34 7 5 C7 4.34 7 3.68 7 3 C5.68 3 4.36 3 3 3 Z M14 3 C13.23043864 5.34533951 13.23043864 5.34533951 13 8 C14.33378575 9.8354799 14.33378575 9.8354799 16 11 C17.65 10.34 19.3 9.68 21 9 C21 7.35 21 5.7 21 4 C17.73914061 2.02948211 17.73914061 2.02948211 14 3 Z " fill="#FFFFFF" transform="translate(75,53)"/>
<path d="M0 0 C3.69302363 1.3357745 5.00493947 2.66119347 6.9375 6.0625 C7.02519883 9.65815222 6.18801429 10.79051306 3.75 13.4375 C0.9375 15.0625 0.9375 15.0625 -2.1875 15 C-6.55439189 13.57601351 -6.55439189 13.57601351 -8.0625 11.0625 C-8.5625 7.625 -8.5625 7.625 -8.0625 4.0625 C-5.43176963 0.9675231 -4.07891993 0.08324326 0 0 Z " fill="#FFFFFF" transform="translate(47.0625,-0.0625)"/>
<path d="M0 0 C4.93391116 4.61213434 4.93391116 4.61213434 5.125 8.625 C3.59619246 11.85248259 2.09066991 13.21427961 -1 15 C-4.50732933 15 -6.2434698 14.6345092 -8.9375 12.375 C-10.49800943 8.88680246 -9.99154664 6.63567102 -9 3 C-6.31860893 0.03131703 -3.926232 -0.8618558 0 0 Z " fill="#FFFFFF" transform="translate(25,0)"/>
<path d="M0 0 C1.5397044 0.08947844 3.08269939 0.1306146 4.625 0.1328125 C5.93210937 0.13474609 5.93210937 0.13474609 7.265625 0.13671875 C8.16796875 0.13285156 9.0703125 0.12898437 10 0.125 C10.90234375 0.12886719 11.8046875 0.13273438 12.734375 0.13671875 C13.60578125 0.13542969 14.4771875 0.13414062 15.375 0.1328125 C16.16648437 0.13168457 16.95796875 0.13055664 17.7734375 0.12939453 C19.97001874 0.00174233 21.88988713 -0.39358343 24 -1 C24 0.98 24 2.96 24 5 C19.19453321 5.07405295 14.3893971 5.12855497 9.58349609 5.16479492 C7.94802059 5.17989911 6.31258571 5.20038389 4.67724609 5.22631836 C2.32899976 5.26263145 -0.01871205 5.27970932 -2.3671875 5.29296875 C-3.46726639 5.31619453 -3.46726639 5.31619453 -4.58956909 5.33988953 C-6.65185547 5.34057617 -6.65185547 5.34057617 -10 5 C-10.66 4.01 -11.32 3.02 -12 2 C-8.44260779 -1.55739221 -4.5680009 -1.15158791 0 0 Z " fill="#FFFFFF" transform="translate(17,138)"/>
<path d="M0 0 C0.9583374 0.00523682 1.9166748 0.01047363 2.90405273 0.01586914 C4.45576172 0.02070313 4.45576172 0.02070313 6.03881836 0.02563477 C7.12743164 0.03401367 8.21604492 0.04239258 9.33764648 0.05102539 C10.97636719 0.05779297 10.97636719 0.05779297 12.64819336 0.06469727 C15.35723144 0.07652713 18.06616248 0.09300996 20.77514648 0.11352539 C20.44514648 1.76352539 20.11514648 3.41352539 19.77514648 5.11352539 C16.17200457 6.30282651 13.087449 6.02716297 9.33764648 5.67602539 C5.46265681 5.32130444 1.66722398 5.04805119 -2.22485352 5.11352539 C-2.78735352 3.17602539 -2.78735352 3.17602539 -3.22485352 1.11352539 C-2.22485352 0.11352539 -2.22485352 0.11352539 0 0 Z " fill="#FFFFFF" transform="translate(67.224853515625,137.886474609375)"/>
<path d="M0 0 C3.33333333 0 6.66666667 0 10 0 C10 1.65 10 3.3 10 5 C8.68 5.33 7.36 5.66 6 6 C5.67 9.63 5.34 13.26 5 17 C3.35 17 1.7 17 0 17 C0 11.39 0 5.78 0 0 Z " fill="#FFFFFF" transform="translate(130,6)"/>
<path d="M0 0 C0 1.65 0 3.3 0 5 C-1.65 5.33 -3.3 5.66 -5 6 C-5 9.63 -5 13.26 -5 17 C-6.65 17 -8.3 17 -10 17 C-10 11.72 -10 6.44 -10 1 C-8.02 1 -6.04 1 -4 1 C-2 0 -2 0 0 0 Z " fill="#FFFFFF" transform="translate(166,30)"/>
<path d="M0 0 C4.29425875 1.07356469 4.74740471 1.5084773 7 5 C7.33 3.35 7.66 1.7 8 0 C8.99 0 9.98 0 11 0 C11 4.29 11 8.58 11 13 C10.01 13 9.02 13 8 13 C5.8125 10 5.8125 10 4 7 C3.67 8.98 3.34 10.96 3 13 C2.01 13 1.02 13 0 13 C0 8.71 0 4.42 0 0 Z " fill="#FFFFFF" transform="translate(158,53)"/>
<path d="M0 0 C7.50769231 -0.36923077 7.50769231 -0.36923077 10 1.5 C10.495 2.2425 10.495 2.2425 11 3 C10.67 3.94875 10.34 4.8975 10 5.875 C8.89840809 8.77062452 8.89840809 8.77062452 9 11 C9.66 11 10.32 11 11 11 C11 11.66 11 12.32 11 13 C9.68 13 8.36 13 7 13 C6.34 11.35 5.68 9.7 5 8 C4.34 8 3.68 8 3 8 C3 9.65 3 11.3 3 13 C2.01 13 1.02 13 0 13 C0 8.71 0 4.42 0 0 Z M3 3 C3 3.99 3 4.98 3 6 C4.65 5.67 6.3 5.34 8 5 C8 4.34 8 3.68 8 3 C6.35 3 4.7 3 3 3 Z " fill="#FFFFFF" transform="translate(127,53)"/>
<path d="M0 0 C1.9375 1.0625 1.9375 1.0625 3 3 C3.63316583 8.90954774 3.63316583 8.90954774 1.875 11.9375 C-0.93512264 13.52990283 -2.82764724 13.45319325 -6 13 C-8.375 11.375 -8.375 11.375 -10 9 C-10.45319325 5.82764724 -10.52990283 3.93512264 -8.9375 1.125 C-5.8930714 -0.64273274 -3.4368988 -0.36823916 0 0 Z M-4 2 C-4.99 2.66 -5.98 3.32 -7 4 C-7.25030977 6.58380177 -7.25030977 6.58380177 -7 9 C-4.60931266 10.10636395 -4.60931266 10.10636395 -2 11 C-1.34 10.67 -0.68 10.34 0 10 C0 8.02 0 6.04 0 4 C-1.32 3.34 -2.64 2.68 -4 2 Z " fill="#FFFFFF" transform="translate(153,53)"/>
<path d="M0 0 C2.33303944 0.03703237 4.66715242 0.04760913 7 0 C7.33 1.65 7.66 3.3 8 5 C2.06 5 -3.88 5 -10 5 C-10.66 3.68 -11.32 2.36 -12 1 C-7.60960979 -1.26171617 -4.78692383 -0.8253317 0 0 Z " fill="#FFFFFF" transform="translate(54,138)"/>
<path d="M0 0 C0.99 0 1.98 0 3 0 C3 2.97 3 5.94 3 9 C4.32 9.33 5.64 9.66 7 10 C5.68 10 4.36 10 3 10 C3 12.64 3 15.28 3 18 C2.01 18 1.02 18 0 18 C0 15.69 0 13.38 0 11 C-2.64 11 -5.28 11 -8 11 C-8 10.01 -8 9.02 -8 8 C-4.535 7.505 -4.535 7.505 -1 7 C-0.67 4.69 -0.34 2.38 0 0 Z " fill="#62A0FB" transform="translate(96,89)"/>
<path d="M0 0 C0.66 0 1.32 0 2 0 C2 0.99 2 1.98 2 3 C3.0725 3 4.145 3 5.25 3 C7.83333333 3 10.41666667 3 13 3 C11.375 9.75 11.375 9.75 8 12 C7.67 10.68 7.34 9.36 7 8 C6.34 8.66 5.68 9.32 5 10 C3.35 10 1.7 10 0 10 C0 6.7 0 3.4 0 0 Z M3 5 C3 5.99 3 6.98 3 8 C3.66 7.34 4.32 6.68 5 6 C4.34 5.67 3.68 5.34 3 5 Z " fill="#FFFFFF" transform="translate(6,88)"/>
<path d="M0 0 C0.99 0 1.98 0 3 0 C3.33 2.31 3.66 4.62 4 7 C6.97 7.495 6.97 7.495 10 8 C9.67 8.99 9.34 9.98 9 11 C4.545 10.01 4.545 10.01 0 9 C0 6.03 0 3.06 0 0 Z " fill="#5397FA" transform="translate(107,89)"/>
<path d="M0 0 C0.99 0 1.98 0 3 0 C3 2.97 3 5.94 3 9 C2.01 9 1.02 9 0 9 C0 6.03 0 3.06 0 0 Z " fill="#FFFFFF" transform="translate(171,53)"/>
<path d="M0 0 C0.99 0 1.98 0 3 0 C3 0.99 3 1.98 3 3 C2.01 3 1.02 3 0 3 C0 2.01 0 1.02 0 0 Z " fill="#FFFFFF" transform="translate(171,63)"/>
</svg>
