<svg xmlns="http://www.w3.org/2000/svg" width="210px" height="70px" xmlns:xlink="http://www.w3.org/1999/xlink" version="1.1" id="Ebene_1" x="0px" y="0px" style="enable-background:new 0 0 325.4 137.5;" xml:space="preserve" viewBox="25.3 25.3 274.7 86.8"><style type="text/css">.st0{fill:#ffffff;}</style><g><g><path class="st0" d="M121.2,39.8c0-8.6,6.5-14.5,14.7-14.5c6.4,0,10,3.4,11.9,6.9l-5.1,2.5c-1.2-2.3-3.7-4.1-6.8-4.1c-4.9,0-8.6,3.9-8.6,9.2s3.7,9.2,8.6,9.2c3.1,0,5.6-1.8,6.8-4.1l5.1,2.5c-2,3.5-5.5,6.9-11.9,6.9C127.7,54.3,121.2,48.4,121.2,39.8z"></path><path class="st0" d="M164.3,41.4c0-2.8-1.5-3.7-3.8-3.7c-2.1,0-3.7,1.2-4.6,2.4v13.7h-5.3v-28h5.3v10.4c1.3-1.6,3.8-3.2,7.1-3.2c4.5,0,6.6,2.4,6.6,6.4v14.4h-5.3V41.4z"></path><path class="st0" d="M185.8,51.7c-1.4,1.6-3.8,2.6-6.4,2.6c-3.2,0-7.1-2.2-7.1-6.7c0-4.8,3.8-6.5,7.1-6.5c2.7,0,5.1,0.8,6.4,2.5v-2.8c0-2.1-1.8-3.4-4.5-3.4c-2.2,0-4.2,0.8-5.9,2.4l-2-3.6c2.5-2.2,5.7-3.2,8.9-3.2c4.6,0,8.9,1.8,8.9,7.7v13.1h-5.3V51.7z M185.8,46.4c-0.9-1.2-2.6-1.8-4.3-1.8c-2.1,0-3.8,1.1-3.8,3.1c0,1.9,1.7,3,3.8,3c1.7,0,3.4-0.6,4.3-1.8V46.4z"></path><path class="st0" d="M195.8,33.5h5.3v2.8c1.4-1.8,4-3.2,6.5-3.2v5.2c-0.4-0.1-0.9-0.2-1.5-0.2c-1.8,0-4.1,1-5,2.3v13.4h-5.3V33.5z"></path><path class="st0" d="M243.9,33c6.1,0,10.2,4.5,10.2,11.2v1.2H239c0.3,2.6,2.4,4.7,5.8,4.7c1.9,0,4.1-0.8,5.4-2l2.4,3.4c-2,1.8-5.2,2.8-8.4,2.8c-6.2,0-10.8-4.2-10.8-10.7C233.4,37.7,237.7,33,243.9,33z M238.9,41.7h10c-0.1-1.9-1.5-4.5-5-4.5C240.6,37.2,239.2,39.7,238.9,41.7z"></path><path class="st0" d="M121.2,72.3c0-8.6,6.5-14.5,14.7-14.5c6.4,0,10,3.4,11.9,6.9l-5.1,2.5c-1.2-2.3-3.7-4.1-6.8-4.1c-4.9,0-8.6,3.9-8.6,9.2s3.7,9.2,8.6,9.2c3.1,0,5.6-1.8,6.8-4.1l5.1,2.5c-2,3.5-5.5,6.9-11.9,6.9C127.7,86.8,121.2,81,121.2,72.3z"></path><path class="st0" d="M148.9,76.2c0-5.8,4-10.6,10.7-10.6c6.7,0,10.8,4.9,10.8,10.6c0,5.8-4,10.7-10.8,10.7C152.9,86.8,148.9,82,148.9,76.2z M164.8,76.2c0-3.2-1.9-5.9-5.2-5.9c-3.3,0-5.2,2.7-5.2,5.9c0,3.2,1.8,5.9,5.2,5.9C162.9,82.1,164.8,79.4,164.8,76.2z"></path><path class="st0" d="M186.7,74.1c0-2.8-1.5-3.8-3.7-3.8c-2.1,0-3.7,1.2-4.6,2.4v13.7H173V66h5.3v2.6c1.3-1.6,3.8-3.2,7.1-3.2c4.5,0,6.6,2.5,6.6,6.5v14.3h-5.3V74.1z"></path><path class="st0" d="M196.6,80c1.5,1.4,4.5,2.8,7,2.8c2.3,0,3.4-0.8,3.4-2.1c0-1.4-1.8-1.9-4.1-2.4c-3.5-0.7-8-1.5-8-6.3c0-3.4,3-6.4,8.3-6.4c3.4,0,6.2,1.2,8.2,2.8l-2.1,3.7c-1.2-1.3-3.5-2.4-6-2.4c-1.9,0-3.2,0.7-3.2,1.9c0,1.3,1.6,1.7,3.9,2.2c3.5,0.7,8.2,1.6,8.2,6.6c0,3.7-3.2,6.5-8.8,6.5c-3.5,0-6.9-1.2-9.1-3.2L196.6,80z"></path><path class="st0" d="M224.5,33.5v2.6c-1.6-2.1-3.8-3.1-6.3-3.1c-5.1,0-9,3.7-9,10.3c0,6.8,3.9,10.3,9,10.3c2.5,0,4.7-1.2,6.3-3.2v2.1c0,4-3,5.1-5.6,5.1s-4.7-0.7-6.3-2.5l-2.4,3.9c2.1,1.8,4.3,2.7,6.9,2.9V66h-3.4v4.7h3.4v10.6c0,3.6,2,5.5,5.8,5.5c2.2,0,3.7-0.6,4.5-1.3l-1.1-4c-0.3,0.3-1.1,0.6-1.8,0.6c-1.2,0-1.8-1-1.8-2.2v-9.2h4.1V66h-4.1v-4.4c3.9-0.8,7.5-3.3,7.5-9.3V33.5H224.5z M224.5,46.6c-0.9,1.3-2.8,2.3-4.6,2.3c-3,0-5.1-2.1-5.1-5.6c0-3.5,2.1-5.6,5.1-5.6c1.8,0,3.7,1,4.6,2.3V46.6z"></path><path class="st0" d="M230,66h5.3v2.8c1.4-1.8,4-3.2,6.5-3.2v5.2c-0.4-0.1-0.9-0.2-1.5-0.2c-1.8,0-4.1,1-5,2.3v13.4H230V66z"></path><path class="st0" d="M258.2,83.8c-1.4,1.6-3.8,3.1-7.1,3.1c-4.5,0-6.6-2.4-6.6-6.4V66h5.3v12.3c0,2.8,1.5,3.7,3.7,3.7c2.1,0,3.7-1.1,4.6-2.3V66h5.3v20.3h-5.3V83.8z"></path><path class="st0" d="M276.9,65.5c4.2,0,6.7,1.8,8,3.7l-3.5,3.3c-1-1.4-2.4-2.2-4.3-2.2c-3.2,0-5.5,2.4-5.5,5.9s2.3,5.9,5.5,5.9c1.8,0,3.3-0.8,4.3-2.2l3.5,3.2c-1.3,1.9-3.9,3.7-8,3.7c-6.3,0-10.8-4.4-10.8-10.7C266.2,70,270.6,65.5,276.9,65.5z"></path><path class="st0" d="M289.9,81.3V70.7h-3.4V66h3.4v-5.5h5.4V66h4.1v4.7h-4.1v9.2c0,1.3,0.7,2.2,1.8,2.2c0.8,0,1.6-0.3,1.8-0.6l1.1,4c-0.8,0.7-2.2,1.3-4.5,1.3C291.9,86.8,289.9,84.9,289.9,81.3z"></path></g><g><path class="st0" d="M123.2,95.6h6.9c3.4,0,5.2,2.3,5.2,5c0,2.7-1.9,5-5.2,5h-4.4v6.3h-2.4V95.6z M129.8,97.7h-4.1v5.7h4.1c1.8,0,3-1.2,3-2.9S131.6,97.7,129.8,97.7z"></path><path class="st0" d="M145.4,95.3c4.9,0,8.2,3.6,8.2,8.4s-3.4,8.4-8.2,8.4c-4.9,0-8.2-3.6-8.2-8.4S140.5,95.3,145.4,95.3z M145.4,97.5c-3.5,0-5.7,2.7-5.7,6.3c0,3.6,2.2,6.3,5.7,6.3c3.5,0,5.7-2.7,5.7-6.3C151.1,100.1,148.8,97.5,145.4,97.5z"></path><path class="st0" d="M165.3,99.3l-3.4,12.6h-2.6l-4.7-16.3h2.7l3.4,13.1l3.6-13.1h2l3.6,13.1l3.4-13.1h2.7l-4.7,16.3h-2.6L165.3,99.3z"></path><path class="st0" d="M178.1,95.6h11v2.2h-8.5v4.8h8.4v2.2h-8.4v5.1h8.5v2.2h-11V95.6z"></path><path class="st0" d="M197.7,105.6h-3.1v6.3h-2.4V95.6h6.9c3.1,0,5.2,2,5.2,5c0,2.9-2,4.5-4.1,4.8l4.2,6.5h-2.8L197.7,105.6z M198.8,97.7h-4.1v5.7h4.1c1.8,0,3-1.2,3-2.9S200.6,97.7,198.8,97.7z"></path><path class="st0" d="M221.2,95.3c4.9,0,8.2,3.6,8.2,8.4s-3.4,8.4-8.2,8.4c-4.9,0-8.2-3.6-8.2-8.4S216.4,95.3,221.2,95.3z M221.2,97.5c-3.5,0-5.7,2.7-5.7,6.3c0,3.6,2.2,6.3,5.7,6.3c3.5,0,5.7-2.7,5.7-6.3C226.9,100.1,224.7,97.5,221.2,97.5z"></path><path class="st0" d="M235,99.4v12.5h-2.4V95.6h2.5l8.9,12.2V95.6h2.4v16.3H244L235,99.4z"></path><path class="st0" d="M251.3,109.1c0.8,0,1.5,0.7,1.5,1.5c0,0.8-0.7,1.5-1.5,1.5c-0.8,0-1.5-0.7-1.5-1.5C249.8,109.8,250.5,109.1,251.3,109.1z M249.9,95.6h2.7l-0.4,11.6h-1.9L249.9,95.6z"></path></g><g><g><circle class="st0" cx="69.3" cy="57.5" r="12.6" id="lc1"></circle></g><g><circle class="st0" cx="100.6" cy="57.5" r="12.6" id="lc2"></circle></g><g><circle class="st0" cx="37.9" cy="57.5" r="12.6" id="lc3"></circle></g><g><circle class="st0" cx="84.9" cy="85.8" r="12.6" id="lc4"></circle></g><g><circle class="st0" cx="53.6" cy="85.8" r="12.6" id="lc5"></circle></g><g><circle class="st0" cx="53.6" cy="34.3" r="8.9" id="lc6"></circle></g><g><circle class="st0" cx="84.9" cy="34.3" r="8.9" id="lc7"></circle></g></g></g></svg>